<?xml version="1.0" encoding="UTF-8"?><svg id="Layer_1" xmlns="http://www.w3.org/2000/svg" viewBox="0 0 293.91 91.28"><defs><style>.cls-1{fill:#c82030;}</style></defs><path class="cls-1" d="m128.03,16.5c1.59.99,3.66,1.49,6.18,1.49,6.06,0,9.68-3.15,9.68-8.44,0-1.86-.61-7.55-7.63-8.48-1.35-.67-3.06-1.07-5.23-1.07-7.35,0-9.64,4.48-9.64,8.49,0,3.4,1.66,6.99,6.64,8.01Zm15.59-6.95c0,7.58-7.2,8.17-9.41,8.17-2.32,0-4.06-.43-5.4-1.08.68.1,1.42.16,2.22.16,7.25,0,9.54-4.29,9.54-8.3,0-2.61-.98-5.41-3.65-7.05,6.16,1.18,6.7,6.38,6.7,8.11Z"/><path class="cls-1" d="m65.6,77.48c.76-1.61,1.11-2.85,1.11-3.24-.76.67-6.68,4.58-16.51,4.58-2.6,0-5.23-.28-7.75-.85-3.45-1.25-6.33-3.11-8.37-5.52,7.24-.76,13.47-3.75,18.04-8.65,4.72-5.07,7.22-11.75,7.22-19.32,0-8.04-2.99-14.71-8.65-19.31-3.15-2.56-7.02-4.38-11.28-5.36-3.4-1.19-7.05-1.78-10.68-1.78C12.31,18.04,0,27.58,0,45.43c0,12.48,7.82,21.48,18.31,24.72,1.81.8,3.74,1.44,5.78,1.87,2.65,8.32,7.88,15.05,15.91,17.28,2.77,1.31,5.86,1.99,9.18,1.99,15.84,0,20.84-14.62,20.84-15.97v-.29l-.22.19c-.49.42-1.93,1.36-4.2,2.28Zm-15.09-52.11c5.59,4.54,8.55,11.15,8.55,19.1,0,15.12-10.15,26.26-25.27,27.73l-.25.02.16.19c1.7,2.07,4,3.76,6.73,5.02-3.89-1.19-7.37-3.18-9.81-6.16,14.7-1.43,25.38-12.31,25.38-27.87,0-11.65-6.23-19.08-14.39-22.72,3.31,1.04,6.34,2.61,8.88,4.68Zm-12.92,18.71c0,12.98-2.67,19.85-9.92,19.85-.25,0-.48-.03-.71-.05-3.62-2.13-5.23-7.85-5.23-18.07,0-13.29,2.9-18.95,9.7-18.95.52,0,1.02.03,1.5.09,3.7,2.52,4.67,8.62,4.67,17.14Zm-9.35-18.42c1.66,0,3.02.35,4.16.99-.32-.03-.64-.06-.98-.06-6.98,0-9.96,5.75-9.96,19.22,0,7.5.7,15.11,5.01,18.04-6.35-.82-8.05-8.3-8.05-19.1,0-12.98,2.67-19.09,9.83-19.09Zm-7.68,45.07c1.08.24,2.17.43,3.29.55.04.14.09.27.14.41-1.17-.25-2.31-.57-3.42-.96Zm28.61,20.28c-2.71,0-5.26-.47-7.61-1.36,1.4.27,2.87.43,4.42.43,11.29,0,17.1-7.54,19.43-12.26,2.13-.83,3.6-1.71,4.28-2.22-.5,2.47-5.7,15.4-20.54,15.4Z"/><path class="cls-1" d="m115.22,62.77c-.17,0-.33-.02-.48-.04.1-.6.16-1.21.16-1.84-.5.35-1.05.59-1.57.74-.24-.5-.36-1.15-.36-1.97V23.92h-.14c-1.05.09-2.11.21-3.17.36v-1.28c-7.92.57-16.61,3.53-21.85,6.3l4.96,2.67v28.34c0,.71.04,1.38.11,2.03-.26.06-.52.1-.77.14.12-.61.19-1.24.19-1.88-1.64.69-3.42,1.05-4.8,1.12-.76-.76-1.14-1.96-1.14-3.68V23.92h-.14c-1.07.07-2.13.17-3.17.3v-1.22c-8.4.48-16.8,3.44-21.76,6.3l4.77,2.67v25.38c0,7.79,3.25,12.39,9.07,13.71,1.91,1.05,4.24,1.61,6.99,1.61,5.46,0,9.87-2.26,12.03-5.8,1.19,2.25,3.19,3.75,6.08,4.33,1.6.97,3.61,1.47,6.03,1.47,7.05,0,11.97-4.41,11.97-10.73v-.25l-.21.15c-.98.69-2.11.93-2.79.93Zm-2.52-38.57v35.45c0,.83.12,1.51.35,2.04-.37.09-.72.14-1.01.14-1.81,0-2.39-1.43-2.39-3.24V24.54c1.02-.15,2.04-.27,3.05-.34Zm-26.63,0v33.83c0,1.66.35,2.89,1.04,3.71-.03,0-.06,0-.08,0-2.48,0-4.01-1.24-4.01-4.77V24.49c1.01-.13,2.02-.23,3.05-.29Zm-3.97,48.21c-2.35,0-4.37-.4-6.08-1.15.91.15,1.88.22,2.9.22,7.2,0,12.04-3.74,13.13-8.72.28-.05.56-.09.84-.15.18,1.51.55,2.85,1.13,4.01-2.06,3.55-6.39,5.79-11.92,5.79Zm24.14,0c-2.04,0-3.79-.36-5.23-1.07.65.09,1.32.14,2.05.14,6.67,0,10.71-3.78,11.63-8.49.16.03.34.05.52.05.66,0,1.75-.22,2.73-.84-.13,6.03-4.9,10.21-11.7,10.21Z"/><path class="cls-1" d="m142.74,23.72l-.15.02c-1.05.12-2.11.28-3.17.47v-1.4c-7.63.86-16.22,4.01-21.47,7.16l4.49,2.39v34.07l-3.91,3.63h4.13l-1.29,1.19h25.49l-4.12-3.82V23.72Zm3.44,47.25h-24.14l1-.93h20.29l-3.91-3.63V24.48c1.02-.19,2.04-.34,3.05-.46v43.52l3.71,3.44Z"/><path class="cls-1" d="m199.81,37.32c0-8.05-3.44-12.88-9.74-13.87-1.6-.73-3.49-1.12-5.7-1.12-5.78,0-9.83,2.65-12.38,6.27-.37-2.68-.9-4.5-1.31-5.28l-.04-.08-.09.02c-.88.14-1.75.31-2.62.5-.18-.62-.36-1.1-.54-1.43-7.73,1.24-15.46,4.39-19.85,7.16l4.58,2.48v34.55l-3.82,3.53h4.13l-1.29,1.19h24.82l-3.55-3.24v-32.52l.22-.13c.48-.29,2.26-1.22,5.08-1.22.24,0,.45.02.67.04.78.84,1.11,2.12,1.11,3.92v28.92l-3.24,3.05h4.11l-1.27,1.19h24.92l-4.22-3.82v-30.1Zm-24.52,33.65h-23.47l1-.93h19.62l-3.34-3.05v-32.83c0-4.46-.52-8.02-1.11-10.15.83-.18,1.66-.34,2.5-.47.41.83.93,2.69,1.28,5.4-1.08,1.62-1.87,3.4-2.38,5.23.6-.36,1.53-.75,2.72-1,.02.66.04,1.34.04,2.06v32.89l3.13,2.86Zm-2.84-35.79l-.03.09v-.06c0-.73-.02-1.43-.04-2.1.27-.05.54-.09.83-.12-.29.7-.55,1.42-.76,2.19Zm.34-.24c.21-.69.45-1.35.72-1.98.33-.03.68-.05,1.04-.05,1.59,0,2.71.31,3.5.95-.11,0-.21-.02-.32-.02-2.49,0-4.19.71-4.94,1.1Zm30.55,36.02h-23.56l.99-.93h19.74l-4.01-3.63v-30.16c0-5.96-1.85-10.25-5.58-12.39,5.66,1.24,8.63,5.81,8.63,13.45v30.22l3.8,3.43Z"/><path class="cls-1" d="m245.54,51.14l-.08.27c-.18.61-.62,1.81-1.57,2.98-.37-1.9-.98-3.26-1.48-4.01-.86,2.96-3.53,6.11-8.68,6.11-1.42,0-4.36-.24-7.51-.55l15.37-17.3c2.75-3.07,4.14-6.21,4.14-9.35,0-3.48-1.77-5.45-3.42-6.14l-.14-.06-.04.14c-.19.64-.34,1.07-.5,1.46-.65-1.28-1.61-2.1-2.55-2.48-.29.95-.48,1.43-.76,2.1-12.31-.76-17.94-1.14-21.19-1.14-10.31,0-13.55,3.82-13.55,10.31,0,4.49,1.53,8.88,3.05,10.69.1-.87.46-1.83,1.13-2.7.56,1.68,1.26,3.04,1.95,3.85l.2.23.04-.3c.11-.89.99-5.32,7.88-5.32,1.28,0,5.77.17,10.24.42l-25.25,29.69c1.03,0,2.35.03,3.85.07l-.95,1.12h.29c3.21,0,9.11.27,14.82.53,4.87.22,9.48.43,11.61.43,12.49,0,15.11-7.18,15.11-13.21,0-3.58-.95-6.28-1.84-7.61l-.16-.24Zm-3.21-27.66c1.53.7,3.12,2.57,3.12,5.83,0,3.07-1.37,6.15-4.07,9.17l-15.5,17.44c-1.2-.12-2.43-.25-3.61-.38l16.03-18.04c3.25-3.63,4.1-6.78,4.1-9.26,0-1.28-.24-2.35-.62-3.22.18-.43.34-.87.55-1.55Zm-24.51,16.2c-2.58,0-4.63.62-6.1,1.86-1.38,1.16-1.85,2.53-2,3.4-.63-.83-1.25-2.13-1.76-3.69,1.21-1.39,3.31-2.49,6.68-2.49,1.72,0,8.87.29,14.22.67l-.59.69c-4.53-.26-9.15-.43-10.45-.43Zm14.6,32.26c-2.13,0-6.73-.21-11.6-.43-5.55-.25-11.28-.51-14.55-.53l.72-.84c7.28.23,18.51.87,22.25.87,11.07,0,14.98-5.73,14.98-13.07,0-1.2-.11-2.26-.28-3.21.79-.91,1.35-1.94,1.69-2.95.82,1.37,1.64,3.91,1.64,7.22,0,5.9-2.58,12.94-14.85,12.94Z"/><path class="cls-1" d="m289.39,57.59c.23-1.05.35-2.1.35-3.1-3.34,2.58-8.68,4.87-14.12,4.87-.84,0-1.65-.06-2.44-.18-3.82-1.77-5.84-5.68-5.98-11.71h23.53c2.17,0,3.19-2.01,3.19-6.34,0-9.48-4.91-15.71-13.35-17.4-2.34-.91-5.04-1.41-8.09-1.41-13.36,0-25.19,9.16-25.19,25.67,0,11.92,6.17,19.72,15.18,22.41,3.12,1.48,6.7,2.26,10.62,2.26,14.56,0,19.98-10.5,19.98-17.12v-.27l-.21.16c-.94.73-2.13,1.46-3.45,2.14Zm4.26-16.45c0,5.44-1.67,6.07-2.92,6.07h-23.8v.14c.12,5.75,1.99,9.69,5.46,11.68-4.91-1.05-8.35-4.77-8.5-12.75h23.67c1.53,0,3.05-.95,3.05-6.2,0-7.46-3.1-12.98-8.67-15.75,7.44,2.06,11.72,8.02,11.72,16.81Zm-18.32-3.45c0,1.34-.19,2.86-.86,2.86h-6.57c1.07-4.34,3.35-7.05,6.14-7.28.79.9,1.29,2.33,1.29,4.41Zm-4.1-5.63c.98,0,1.86.32,2.56.97-2.81.36-5.09,3.15-6.15,7.52h-3.28c.95-5.06,3.53-8.49,6.87-8.49Zm1.85,40.34c-3.26,0-6.29-.54-9.01-1.58,1.85.42,3.79.65,5.83.65,11.61,0,17.81-6.9,19.41-13.55,1.33-.66,2.52-1.39,3.48-2.11-.14,6.53-5.55,16.59-19.71,16.59Z"/></svg>